HIERARCHY
ROOT hip
{
	OFFSET 0.000000 0.000000 0.000000 
	CHANNELS 6 Xposition Yposition Zposition Xrotation Zrotation Yrotation
	JOINT abdomen
	{
		OFFSET 0.000000 3.402643 0.000000 
		CHANNELS 3 Xrotation Zrotation Yrotation
		JOINT chest
		{
			OFFSET 0.000000 8.438565 -0.680529 
			CHANNELS 3 Xrotation Zrotation Yrotation
			JOINT neck
			{
				OFFSET 0.000000 10.207942 -0.272212 
				CHANNELS 3 Xrotation Zrotation Yrotation
				JOINT head
				{
					OFFSET 0.000000 3.130431 0.000000 
					CHANNELS 3 Xrotation Zrotation Yrotation
					End Site
					{
						OFFSET 0.000000 3.130435 0.000000 
					}
				}
			}
			JOINT lCollar
			{
				OFFSET 3.470700 6.669187 -0.816635 
				CHANNELS 3 Yrotation Zrotation Xrotation
				JOINT lShldr
				{
					OFFSET 3.198488 0.000000 0.000000 
					CHANNELS 3 Zrotation Yrotation Xrotation
					JOINT lForeArm
					{
						OFFSET 10.139888 0.000000 0.000000 
						CHANNELS 3 Yrotation Zrotation Xrotation
						JOINT lHand
						{
							OFFSET 8.370511 0.000000 0.000000 
							CHANNELS 3 Zrotation Yrotation Xrotation
							End Site
							{
								OFFSET 4.083176 0.000000 0.000000 
							}
						}
					}
				}
			}
			JOINT rCollar
			{
				OFFSET -3.470700 6.669187 -0.816635 
				CHANNELS 3 Yrotation Zrotation Xrotation
				JOINT rShldr
				{
					OFFSET -3.198488 0.000000 0.000000 
					CHANNELS 3 Zrotation Yrotation Xrotation
					JOINT rForeArm
					{
						OFFSET -10.139888 0.000000 0.000000 
						CHANNELS 3 Yrotation Zrotation Xrotation
						JOINT rHand
						{
							OFFSET -8.370511 0.000000 0.000000 
							CHANNELS 3 Zrotation Yrotation Xrotation
							End Site
							{
								OFFSET -4.083176 0.000000 0.000000 
							}
						}
					}
				}
			}
		}
	}
	JOINT lThigh
	{
		OFFSET 5.308129 -1.633274 1.361059 
		CHANNELS 3 Xrotation Zrotation Yrotation
		JOINT lShin
		{
			OFFSET -2.041588 -20.007561 0.000000 
			CHANNELS 3 Xrotation Zrotation Yrotation
			JOINT lFoot
			{
				OFFSET 0.000000 -19.190928 -1.224953 
				CHANNELS 3 Xrotation Yrotation Zrotation
				End Site
				{
					OFFSET 0.000000 -2.449906 4.627600 
				}
			}
		}
	}
	JOINT rThigh
	{
		OFFSET -5.308129 -1.633274 1.361059 
		CHANNELS 3 Xrotation Zrotation Yrotation
		JOINT rShin
		{
			OFFSET 2.041588 -20.007561 0.000000 
			CHANNELS 3 Xrotation Zrotation Yrotation
			JOINT rFoot
			{
				OFFSET 0.000000 -19.190928 -1.224953 
				CHANNELS 3 Xrotation Yrotation Zrotation
				End Site
				{
					OFFSET 0.000000 -2.449906 4.627600 
				}
			}
		}
	}
}
MOTION
Frames: 20
Frame Time: 0.033333
-3.419279 45.588821 -4.924061 12.960789 -2.975534 -0.045297 21.890089 8.659787 3.339242 0.410757 5.322252 -0.009908 -8.544922 -0.001505 -0.009645 7.018931 -11.763516 0.220771 2.000000 -2.000000 0.000000 -88.167343 -17.211626 12.721064 -1.909101 -0.963729 8.280038 0.896274 18.995920 -18.318874 -2.000000 2.000000 0.000000 61.854069 -14.741426 22.596302 59.850517 0.536254 8.672565 -0.902044 -19.005135 -18.338219 -63.305199 9.071856 -6.086450 55.028828 0.103197 -3.680961 -23.504269 2.238464 -5.467716 -14.363143 0.400192 -1.774098 51.130875 0.133021 3.485954 -29.715029 -1.082713 -1.275180 
-3.404251 45.353420 -6.413818 12.997751 -3.489978 0.699881 21.951134 8.694366 3.357774 0.430514 5.654272 -0.006647 -8.544922 -0.001505 -0.009645 6.934983 -12.456173 -0.183923 2.000000 -2.000000 0.000000 -88.998688 -17.492273 12.762273 -0.703529 -0.975073 8.277569 0.651354 19.234724 -18.320955 -2.000000 2.000000 0.000000 61.165123 -14.046472 22.264549 58.249683 0.537455 8.653535 -0.902044 -19.005135 -18.338219 -63.594170 8.934927 -5.917974 57.388512 0.239407 -3.748534 -19.034126 0.584605 -5.870393 -14.744943 0.526866 -2.316697 54.572849 -0.072377 3.607335 -25.749372 -1.384648 -0.921445 
-3.374198 44.977749 -7.888547 13.071712 -4.123957 1.662289 21.989054 8.682706 3.333409 0.450357 6.083945 -0.002632 -8.544922 -0.001505 -0.009645 6.879441 -13.295369 -0.557862 2.000000 -2.000000 0.000000 -89.905708 -17.507889 13.020003 0.331083 -0.985996 8.280499 0.431173 19.569702 -18.332529 -2.000000 2.000000 0.000000 60.377064 -13.415092 21.802801 56.770515 0.546319 8.644405 -0.902044 -19.005135 -18.338219 -64.140343 8.701102 -5.856726 60.019966 0.405266 -3.836195 -14.694507 -1.213210 -5.917341 -16.040632 0.595459 -3.129534 59.006931 -0.356089 3.778925 -20.122513 -1.573331 -0.379140 
-3.344144 44.697212 -9.363278 13.155916 -4.916525 2.811887 21.995609 8.638619 3.312319 0.450653 6.581983 0.000382 -8.544922 -0.001505 -0.009645 6.842422 -14.251788 -0.902334 2.000000 -2.000000 0.000000 -90.875000 -17.270348 13.473131 1.208114 -0.999177 8.284552 0.233120 19.979059 -18.336332 -2.000000 2.000000 0.000000 59.510689 -12.860276 21.225698 55.453716 0.549164 8.629473 -0.902044 -19.005135 -18.338219 -64.338760 8.466446 -5.774794 62.455654 0.580381 -3.912420 -12.635840 -2.818274 -5.494774 -17.357693 0.770943 -3.895538 62.798939 -0.582365 3.878075 -13.084770 -1.774301 0.394206 
-3.319103 44.697212 -10.843020 13.202924 -5.764219 4.071918 22.001030 8.576524 3.282285 0.470684 7.138604 0.005552 -8.544922 -0.001505 -0.009645 6.834262 -15.296253 -1.202001 2.000000 -2.000000 0.000000 -91.877762 -16.821405 14.097524 1.910721 -1.008325 8.278875 0.048807 20.455463 -18.385351 -2.000000 2.000000 0.000000 58.578293 -12.342889 20.561216 54.240444 0.554493 8.617218 -0.902044 -19.005135 -18.338219 -63.817360 8.329950 -5.709301 64.511726 0.707250 -3.975008 -15.487348 -4.003332 -4.750386 -18.153820 1.210405 -4.396022 64.824448 -0.738086 3.950484 -5.296749 -2.093567 1.464073 
-3.294063 45.017750 -12.322762 13.287534 -6.688602 5.417513 21.986330 8.518893 3.242179 0.451471 7.753835 0.007455 -8.544922 -0.001505 -0.009645 6.834947 -16.418884 -1.462936 2.000000 -2.000000 0.000000 -92.905609 -16.180895 14.863728 2.456229 -1.006139 8.271922 -0.111889 20.997555 -18.424665 -2.000000 2.000000 0.000000 57.586704 -11.893450 19.818918 53.160278 0.556360 8.606355 -0.902044 -19.005135 -18.338219 -62.299713 8.329727 -5.589285 65.057411 0.756037 -3.978572 -17.844149 -5.300279 -4.089198 -22.509993 0.771015 -3.918696 64.474495 -0.708537 3.924231 -2.930287 -1.756926 2.213906 
-3.264009 45.443554 -13.797481 13.350686 -7.616714 6.772331 21.961536 8.449019 3.205388 0.451984 8.388588 0.011275 -8.544922 -0.001505 -0.009645 6.855013 -17.590502 -1.689516 2.000000 -2.000000 0.000000 -93.917526 -15.385729 15.738800 2.874873 -1.012232 8.270529 -0.245169 21.583811 -18.457314 -2.000000 2.000000 0.000000 56.570396 -11.503308 19.011293 52.194901 0.564633 8.604294 -0.902044 -19.005135 -18.338219 -60.276234 8.466332 -5.530273 64.813980 0.736560 -3.970365 -19.942970 -6.638537 -3.526280 -28.338984 0.243651 -2.892314 62.505867 -0.581375 3.875452 -11.873702 -0.754632 1.816860 
-3.233956 45.984493 -15.272210 13.411806 -8.551581 8.107773 21.928988 8.403272 3.188802 0.432833 9.052649 0.012989 -8.544922 -0.001505 -0.009645 6.884659 -18.791519 -1.890114 2.000000 -2.000000 0.000000 -94.919334 -14.448174 16.719925 3.197109 -1.016122 8.280087 -0.361833 22.198835 -18.498106 -2.000000 2.000000 0.000000 55.543865 -11.163651 18.155190 51.351665 0.567251 8.595120 -0.902044 -19.005135 -18.338219 -57.926556 8.700788 -5.540142 63.956150 0.677455 -3.959096 -21.771017 -7.905470 -3.077660 -34.565502 -0.360910 -1.616479 59.757477 -0.428128 3.782798 -23.014862 0.107015 1.391811 
-3.208916 46.565437 -16.751940 13.445078 -9.397155 9.372850 21.876886 8.370585 3.165436 0.422749 9.736274 -0.003380 -8.544922 -0.001505 -0.009645 6.934685 -20.002523 -2.053041 2.000000 -2.000000 0.000000 -95.866226 -13.426500 17.752596 3.402090 -1.018277 8.277259 -0.463810 22.846483 -18.555891 -2.000000 2.000000 0.000000 54.514790 -10.847692 17.277836 50.598969 0.574442 8.581329 -0.902044 -19.005135 -18.338219 -55.284195 9.032126 -5.600977 62.610924 0.598719 -3.927840 -23.431402 -9.083969 -2.789673 -40.103016 -1.171603 -0.433307 57.057434 -0.252345 3.707464 -27.242113 -0.121784 1.756864 
-3.193889 47.181511 -18.241671 13.477978 -10.192327 10.521957 21.847719 8.391225 3.166355 0.394529 10.419838 0.005817 -8.544922 -0.001505 -0.009645 6.995343 -21.203903 -2.189487 2.000000 -2.000000 0.000000 -96.759590 -12.320868 18.857243 3.493697 -1.020089 8.275121 -0.551859 23.501005 -18.601036 -2.000000 2.000000 0.000000 53.508141 -10.590269 16.378460 49.945084 0.572369 8.574430 -0.902044 -19.005135 -18.338219 -52.468899 9.442795 -5.760808 60.954403 0.481788 -3.883437 -24.939573 -10.066174 -2.631112 -45.095436 -2.382859 0.616247 54.231007 -0.062420 3.606105 -21.545795 -1.597933 3.195619 
-3.168848 47.697319 -19.721529 13.504297 -10.868584 11.497557 21.781847 8.458719 3.181278 0.384307 11.074164 -0.001391 -8.544922 -0.001505 -0.009645 7.056728 -22.366278 -2.309864 2.000000 -2.000000 0.000000 -97.590172 -11.177632 19.993223 3.537110 -1.026392 8.278786 -0.629489 24.152258 -18.659071 -2.000000 2.000000 0.000000 52.540211 -10.360517 15.471164 49.383091 0.574684 8.571105 -0.902044 -19.005135 -18.338219 -49.509369 9.921530 -5.952084 59.112827 0.355999 -3.822356 -26.433014 -10.801370 -2.642971 -50.141911 -3.866869 1.743666 50.945129 0.119423 3.480739 -11.070951 -3.468128 5.259632 
-3.163835 48.143124 -21.221262 13.525595 -11.384542 12.236499 21.739546 8.588677 3.225337 0.355046 11.718702 -0.003027 -8.544922 -0.001505 -0.009645 7.119058 -23.479876 -2.384947 2.000000 -2.000000 0.000000 -98.329788 -10.017277 21.115440 3.493697 -1.020089 8.275121 -0.694899 24.805298 -18.717289 -2.000000 2.000000 0.000000 51.632462 -10.161190 14.591089 48.908844 0.582618 8.563169 -0.902044 -19.005135 -18.338219 -46.523312 10.437928 -6.176492 57.270641 0.256391 -3.753642 -27.899855 -11.233721 -2.775126 -54.909008 -5.263459 2.906629 47.678509 0.305403 3.339606 0.966968 -5.150553 7.515304 
-3.153821 48.463657 -22.715992 13.528918 -11.727724 12.727777 21.701303 8.781953 3.294885 0.335662 12.324175 -0.003291 -8.544922 -0.001505 -0.009645 7.193589 -24.505735 -2.452796 2.000000 -2.000000 0.000000 -98.959076 -8.883606 22.226721 3.415312 -1.016877 8.273688 -0.745018 25.429525 -18.774649 -2.000000 2.000000 0.000000 50.783955 -9.996853 13.729842 48.504993 0.580389 8.559749 -0.902044 -19.005135 -18.338219 -43.523560 10.956697 -6.460498 55.633663 0.142161 -3.689268 -29.484840 -11.282899 -3.001401 -58.940121 -6.308268 3.939821 44.937492 0.461850 3.223037 11.331504 -6.600261 9.468169 
-3.153821 48.573925 -24.220852 13.534654 -11.854996 12.898978 21.670378 9.071473 3.414470 0.316172 12.861288 -0.004163 -8.544922 -0.001505 -0.009645 7.269837 -25.443743 -2.495815 2.000000 -2.000000 0.000000 -99.494843 -7.776387 23.302809 3.288727 -1.018078 8.277899 -0.788047 26.019533 -18.823341 -2.000000 2.000000 0.000000 50.036629 -9.856861 12.926296 48.181568 0.584640 8.563203 -0.902044 -19.005135 -18.338219 -40.575558 11.433532 -6.683837 54.307617 0.061649 -3.648810 -31.261810 -10.928471 -3.273532 -61.821484 -6.728259 4.633300 43.220654 0.559706 3.138388 16.676352 -8.018880 10.556273 
-3.153821 48.463657 -25.725586 13.543845 -11.815158 12.841202 21.632471 9.410106 3.542157 0.296605 13.349576 -0.005462 -8.544922 -0.001505 -0.009645 7.337356 -26.254742 -2.519783 2.000000 -2.000000 0.000000 -99.905670 -6.747984 24.317947 3.123316 -1.021358 8.270944 -0.813853 26.567881 -18.870090 -2.000000 2.000000 0.000000 49.389854 -9.740962 12.178885 47.903881 0.587140 8.562033 -0.902044 -19.005135 -18.338219 -39.316837 11.619119 -7.132876 55.817913 0.159835 -3.717795 -31.821497 -10.369379 -2.960781 -63.098331 -6.425778 4.968244 42.654991 0.598754 3.105857 15.619671 -9.824729 10.546792 
-3.163835 48.087990 -27.240446 13.541963 -11.687226 12.654565 21.604633 9.739325 3.667117 0.276918 13.759738 -0.007321 -8.544922 -0.001505 -0.009645 7.406953 -26.929050 -2.518682 2.000000 -2.000000 0.000000 -100.197693 -5.794248 25.243448 2.961815 -1.015529 8.276755 -0.843186 27.071461 -18.912903 -2.000000 2.000000 0.000000 48.873123 -9.644176 11.497868 47.692787 0.587806 8.549958 -0.902044 -19.005135 -18.338219 -38.217381 11.727383 -7.587696 57.806473 0.276699 -3.786562 -32.665737 -9.627866 -2.663950 -63.095894 -5.664129 4.996019 42.898006 0.586341 3.142261 10.307005 -11.909749 9.605013 
-3.183875 47.582180 -28.765181 13.519016 -11.463326 12.356923 21.585716 10.028380 3.787844 0.258342 14.081989 0.000000 -8.544922 -0.001505 -0.009645 7.467918 -27.427519 -2.497925 2.000000 -2.000000 0.000000 -100.360298 -4.976756 26.048611 2.791768 -1.009744 8.277566 -0.853284 27.502661 -18.951982 -2.000000 2.000000 0.000000 48.494408 -9.582108 10.914743 47.549706 0.587022 8.554732 -0.902044 -19.005135 -18.338219 -37.089745 11.785269 -8.064513 59.970776 0.412583 -3.839603 -33.664024 -8.748020 -2.416844 -62.392788 -4.677949 4.800945 43.786499 0.537222 3.167183 2.572119 -13.834391 7.940801 
-3.188875 46.961105 -30.275040 13.517719 -11.189452 11.959088 21.574612 10.292924 3.890861 0.258526 14.296829 0.000744 -8.544922 -0.001505 -0.009645 7.519948 -27.750143 -2.461307 2.000000 -2.000000 0.000000 -100.384621 -4.291936 26.728107 2.656604 -1.010579 8.277204 -0.860590 27.859661 -18.968103 -2.000000 2.000000 0.000000 48.294888 -9.528085 10.435292 47.431973 0.586520 8.561547 -0.902044 -19.005135 -18.338219 -35.748508 11.805856 -8.487955 62.007805 0.541363 -3.896009 -34.553745 -7.744657 -2.195433 -61.590576 -3.720709 4.480824 45.122562 0.458941 3.240541 -5.656093 -15.300787 5.986331 
-3.213915 46.330032 -31.804773 13.519334 -10.848325 11.460836 21.559368 10.494145 3.966686 0.238532 14.404260 -0.002526 -8.544922 -0.001505 -0.009645 7.563038 -27.867628 -2.409387 2.000000 -2.000000 0.000000 -100.257317 -3.783996 27.238005 2.534657 -1.009945 8.273128 -0.874393 28.121918 -19.011694 -2.000000 2.000000 0.000000 48.262966 -9.490379 10.066001 47.360554 0.592639 8.556944 -0.902044 -19.005135 -18.338219 -34.151752 11.805032 -8.811052 63.761860 0.658076 -3.942941 -35.298512 -6.667576 -1.978270 -61.334141 -3.007872 4.069176 46.751907 0.380452 3.306981 -12.448711 -16.269279 4.393440 
-3.213915 45.754093 -33.309635 13.493035 -10.442719 10.893844 21.551668 10.658277 4.030354 0.218464 14.423800 0.003670 -8.544922 -0.001505 -0.009645 7.596685 -27.809273 -2.326273 2.000000 -2.000000 0.000000 -100.056831 -3.440599 27.575539 2.451536 -1.007245 8.280416 -0.868846 28.282082 -19.007538 -2.000000 2.000000 0.000000 48.358242 -9.479864 9.848431 47.335121 0.592040 8.554863 -0.902044 -19.005135 -18.338219 -32.196484 11.814047 -8.978360 65.008644 0.753739 -3.977875 -35.655823 -5.568932 -1.783272 -62.210918 -2.763681 3.315215 50.008713 0.184260 3.456064 -17.397001 -16.547518 3.668471 
